<svg width="66" height="66" viewBox="0 0 66 66" fill="none" xmlns="http://www.w3.org/2000/svg">
<circle cx="33" cy="33" r="33" fill="#DCF4F5"/>
<path d="M40.5876 17.4668C40.5876 16.9329 40.1548 16.5 39.6209 16.5H35.7537C35.2197 16.5 34.7869 16.9329 34.7869 17.4668V19.1426H40.5876V17.4668Z" fill="#0CD4DC"/>
<path d="M23.5425 44.4268C22.6912 43.9246 21.9055 43.3159 21.2073 42.6177C21.1563 42.5667 21.1065 42.5147 21.0566 42.4629C19.9055 43.0364 18.8652 43.8377 18.0041 44.8358C17.6912 45.1986 17.6912 45.736 18.0041 46.0989C19.8688 48.2603 22.574 49.4999 25.4261 49.4999C26.2768 49.4999 27.1141 49.3888 27.9203 49.1767C26.9082 48.1088 26.0817 46.8861 25.468 45.5628L23.5425 44.4268Z" fill="#0CD4DC"/>
<path d="M24.5252 42.7615C24.3224 41.8311 24.2166 40.8737 24.2166 39.9037C24.2166 37.7086 24.751 35.5915 25.726 33.7093C24.1648 32.9298 22.406 32.5731 20.6246 32.7044C20.1467 32.7396 19.7667 33.1196 19.7315 33.5975C19.5217 36.4444 20.558 39.2338 22.5747 41.2505C23.1646 41.8404 23.8209 42.346 24.5252 42.7615Z" fill="#0CD4DC"/>
<path d="M43.2359 29.7865C41.6857 28.9346 40.7965 27.4317 40.7965 25.6629V23.0057C41.2929 22.9648 41.6831 22.5498 41.6831 22.0429C41.6831 21.5352 41.2914 21.1196 40.7938 21.0801C40.7936 21.0775 34.5805 21.0775 34.5803 21.0801C34.0828 21.1196 33.691 21.5352 33.691 22.0429C33.691 22.5498 34.0813 22.9648 34.5776 23.0057V25.6629C34.5776 27.4316 33.6885 28.9346 32.1383 29.7865C29.6009 31.1808 27.7239 33.4467 26.7972 36.0937H48.5769C47.6503 33.4466 45.7733 31.1807 43.2359 29.7865Z" fill="#0CD4DC"/>
<path d="M49.07 38.0273H26.3044C26.2032 38.6418 26.1501 39.2688 26.1501 39.9037C26.1501 43.6385 27.9716 47.1593 31.0225 49.3219C31.186 49.4377 31.3813 49.5 31.5816 49.5H43.7928C43.9931 49.5 44.1884 49.4378 44.3518 49.3219C47.4028 47.1593 49.2242 43.6385 49.2242 39.9037C49.2244 39.2689 49.1713 38.6418 49.07 38.0273Z" fill="#0CD4DC"/>
</svg>
