<svg width="66" height="66" viewBox="0 0 66 66" fill="none" xmlns="http://www.w3.org/2000/svg">
<circle cx="33" cy="33" r="33" fill="#FFE9E5"/>
<path d="M34.3598 25.7035C34.9488 24.7199 35.8808 23.3121 37.0581 21.9613H37.0595C38.0565 20.8149 40.0091 19.3434 40.0091 19.3434C40.3026 19.1217 40.2711 18.8128 39.9374 18.6573L37.5774 17.5544C37.2437 17.3983 36.7901 17.5122 36.569 17.8064C36.569 17.8064 34.8235 20.3103 32.7691 25.6405C26.4169 22.7674 20.379 26.7917 20.379 33.7896C20.379 41.0991 26.0028 52.2025 33.608 48.8509C41.6179 52.3171 46.841 41.0998 46.841 33.7896C46.841 26.7314 41.4135 22.5932 34.3598 25.7035Z" fill="#F8644A"/>
<path d="M32.937 23.3366C33.3042 23.3057 33.6285 22.9808 33.6579 22.6142C33.6579 22.6142 33.8938 19.7558 31.9017 17.7618C29.9036 15.767 27.0505 16.0049 27.0505 16.0049C26.6833 16.0357 26.359 16.3607 26.3288 16.7272C26.3288 16.7272 26.089 19.587 28.0837 21.5817C30.0772 23.5744 32.937 23.3366 32.937 23.3366Z" fill="#F8644A"/>
</svg>
