<svg width="66" height="66" viewBox="0 0 66 66" fill="none" xmlns="http://www.w3.org/2000/svg">
<circle cx="33" cy="33" r="33" fill="#F3EFFA"/>
<path d="M44.1088 27.9746C41.2396 29.1701 38.2498 29.926 35.1863 30.2336L36.6305 27.7321L41.5553 28.0277C42.1023 28.0605 42.5725 27.6437 42.6053 27.0967C42.6381 26.5497 42.2213 26.0796 41.6743 26.0467L37.7399 25.8106L38.615 24.2949L43.5399 24.5905C44.0869 24.6233 44.557 24.2065 44.5898 23.6595C44.6226 23.1125 44.2058 22.6424 43.6588 22.6095L39.7245 22.3734L40.8236 20.4696C41.9196 18.5712 44.347 17.9208 46.2454 19.0168C48.1438 20.1128 48.7942 22.5403 47.6981 24.4387L46.147 27.1253L44.1088 27.9746Z" fill="#AE80FF"/>
<path d="M32.0237 30.3918C30.707 30.3918 29.4008 30.3105 28.1085 30.1491C28.0737 29.9041 28.0546 29.6541 28.0546 29.3995C28.0546 26.4768 30.424 24.1074 33.3467 24.1074C34.3201 24.1074 35.2313 24.3714 36.0149 24.8299L32.8093 30.3821C32.5478 30.3886 32.286 30.3918 32.0237 30.3918Z" fill="#AE80FF"/>
<path d="M26.7703 26.2862C26.0371 24.3471 25.9028 22.888 25.9009 22.8657C25.8544 22.3197 25.3739 21.916 24.8281 21.961C24.2821 22.0074 23.8771 22.4877 23.9235 23.0338C23.9356 23.1763 24.2112 26.1711 26.0713 29.4672C26.0724 29.5882 26.0774 29.7084 26.0844 29.828C23.9879 29.4246 21.9338 28.8062 19.9381 27.9747L18.7438 27.477C18.9007 27.0923 19.1195 26.7338 19.3937 26.4175C18.0467 25.8203 17.1394 24.479 17.1394 22.9497C17.1394 20.8524 18.8457 19.1461 20.9431 19.1461C21.2755 19.1461 21.6044 19.1906 21.9265 19.2789C22.3762 17.6585 23.8499 16.5 25.5737 16.5C27.2526 16.5 28.706 17.5945 29.1958 19.1634C29.3127 19.1518 29.428 19.1461 29.5428 19.1461C31.3565 19.1461 32.8769 20.4225 33.2551 22.124C30.3949 22.1594 27.927 23.8532 26.7703 26.2862Z" fill="#AE80FF"/>
<path d="M19.1748 29.8062C23.2672 31.5114 27.5901 32.376 32.0235 32.376C36.4569 32.376 40.7798 31.5114 44.8721 29.8062C45.5682 29.5162 46.3207 30.078 46.2403 30.8279C45.9097 33.9132 44.7132 45.2008 44.4455 47.7086C44.2836 49.2253 43.0111 50.3691 41.4855 50.3691H22.5614C21.0359 50.3691 19.7634 49.2253 19.6014 47.7085C19.3337 45.2008 18.1372 33.9131 17.8066 30.8278C17.7263 30.078 18.4787 29.5162 19.1748 29.8062ZM24.4161 43.754C24.4161 44.302 24.8603 44.7462 25.4083 44.7462H38.6386C39.1866 44.7462 39.6309 44.302 39.6309 43.754V38.4619C39.6309 37.9139 39.1866 37.4696 38.6386 37.4696H25.4083C24.8603 37.4696 24.4161 37.9139 24.4161 38.4619V43.754Z" fill="#AE80FF"/>
<path d="M37.6466 39.4551H26.4009V42.7626H37.6466V39.4551Z" fill="#AE80FF"/>
</svg>
