<svg width="66" height="66" viewBox="0 0 66 66" fill="none" xmlns="http://www.w3.org/2000/svg">
<circle cx="33" cy="33" r="33" fill="#FFE8F2"/>
<g clip-path="url(#clip0_160_1485)">
<path d="M45.4014 17.5551C42.5741 15.9233 38.6766 15.8545 35.2318 17.3761C32.0443 18.7846 29.7466 21.8883 28.3885 24.2208C27.7771 24.0717 27.1229 24.3624 26.839 24.954C26.5674 25.5197 26.726 26.176 27.178 26.5682C27.0542 26.8439 26.9785 27.0291 26.95 27.1012L20.3531 41.5911C19.688 41.2847 18.8955 41.5577 18.5674 42.2187C18.2331 42.892 18.5075 43.709 19.1808 44.0439L19.2257 44.0664L17.7417 47.3281H14.0538C13.3022 47.3281 12.6923 47.9381 12.6923 48.6897C12.6923 49.4413 13.3022 50.0513 14.0538 50.0513H20.8617C21.6133 50.0513 22.2233 49.4413 22.2233 48.6897C22.2233 47.9381 21.6133 47.3281 20.8617 47.3281H20.7337L21.678 45.2537C21.8026 45.2898 21.9285 45.3143 22.0544 45.3143C22.5548 45.3143 23.0368 45.0372 23.2751 44.5587C23.587 43.931 23.365 43.1841 22.789 42.8138L29.6249 27.799C29.8094 27.8841 30.002 27.9264 30.1933 27.9264C30.7005 27.9264 31.1872 27.6418 31.4215 27.1537C31.7332 26.5049 31.48 25.7356 30.8632 25.3856C32.028 23.4229 33.8927 20.9455 36.3333 19.8671C38.9571 18.7077 41.9825 18.7255 44.0405 19.9134C45.554 20.7869 46.4233 22.1764 46.6261 24.0444C47.006 27.543 46.684 29.889 45.6717 31.0184C45.5784 31.1226 45.4757 31.2118 45.3708 31.2961V34.344C46.2095 34.0608 47.0149 33.5986 47.6984 32.8368C49.2723 31.0838 49.8067 28.1114 49.3336 23.751C49.041 21.0489 47.6439 18.8486 45.4014 17.5551Z" fill="#FF7EB6"/>
<path d="M41.5237 40.5204C42.4122 40.5204 43.2523 40.7225 44.0086 41.0752V34.6615V31.8989V30.3086C44.0086 29.5563 44.0801 29.6278 43.3279 29.6278H40.6612C39.909 29.6278 32.3215 30.2521 30.3173 40.1596L29.0312 48.3494C29.0312 49.1016 29.6406 50.0513 30.3928 50.0513H36.8542C36.0767 49.0499 35.609 47.7973 35.609 46.435C35.609 43.1733 38.2628 40.5204 41.5237 40.5204Z" fill="#FF7EB6"/>
<path d="M44.6894 43.1698C44.4804 42.9676 44.253 42.7852 44.0087 42.6252C43.2932 42.1569 42.4402 41.8818 41.5238 41.8818C39.013 41.8818 36.9707 43.9242 36.9707 46.435C36.9707 47.9095 37.6787 49.2193 38.7694 50.0513C39.1493 50.3413 39.5748 50.5721 40.0343 50.7321C40.502 50.8947 41.0018 50.9874 41.5239 50.9874C42.0461 50.9874 42.5458 50.8947 43.0135 50.7321C43.4955 50.5645 43.9414 50.3188 44.3349 50.0091C44.7052 49.7177 45.0314 49.3725 45.2962 48.9818C45.7891 48.2539 46.0778 47.3771 46.0778 46.4342C46.0778 45.5425 45.8164 44.7125 45.3718 44.01C45.1761 43.7035 44.9488 43.4211 44.6894 43.1698ZM41.5237 44.1509C42.7846 44.1509 43.8071 45.1734 43.8071 46.4342C43.8071 47.6951 42.7846 48.7176 41.5237 48.7176C40.2629 48.7176 39.2404 47.6951 39.2404 46.4342C39.2404 45.1734 40.2623 44.1509 41.5237 44.1509Z" fill="#FF7EB6"/>
</g>
<defs>
<clipPath id="clip0_160_1485">
<rect width="36.8077" height="36.8077" fill="white" transform="translate(12.6923 15.2305)"/>
</clipPath>
</defs>
</svg>
